<svg width="56.250000" height="10.750000" viewBox="0 0 56.25 10.75" fill="none" xmlns="http://www.w3.org/2000/svg" xmlns:xlink="http://www.w3.org/1999/xlink">
	<desc>
			Created with Pixso.
	</desc>
	<defs/>
	<g opacity="0.500000" style="mix-blend-mode:hard-light">
		<path id="watermark" d="M2.75 8L2.75 9.75L13.25 9.75L13.25 8L4.5 8L4.5 2.75L13.25 2.75L13.25 1L2.75 1L2.75 2.75L1 2.75L1 8L2.75 8ZM16.75 8L16.75 9.75L27.25 9.75L27.25 2.75L25.5 2.75L25.5 1L16.75 1L16.75 2.75L23.75 2.75L23.75 4.5L16.75 4.5L16.75 6.25L15 6.25L15 8L16.75 8ZM36 2.75L34.25 2.75L34.25 1L30.75 1L30.75 9.75L34.25 9.75L34.25 4.5L36 4.5L36 2.75ZM36 2.75L41.25 2.75L41.25 1L36 1L36 2.75ZM44.75 8L44.75 9.75L53.5 9.75L53.5 8L46.5 8L46.5 6.25L55.25 6.25L55.25 2.75L53.5 2.75L53.5 1L44.75 1L44.75 2.75L43 2.75L43 8L44.75 8ZM51.75 4.5L46.5 4.5L46.5 2.75L51.75 2.75L51.75 4.5ZM23.75 8L18.5 8L18.5 6.25L23.75 6.25L23.75 8Z" fill="#000000" fill-opacity="1.000000" fill-rule="evenodd"/>
		<path id="watermark" d="M2.75 9.75L2.75 8L1 8L1 2.75L2.75 2.75L2.75 1L13.25 1L13.25 2.75L4.5 2.75L4.5 8L13.25 8L13.25 9.75L2.75 9.75ZM16.75 9.75L16.75 8L15 8L15 6.25L16.75 6.25L16.75 4.5L23.75 4.5L23.75 2.75L16.75 2.75L16.75 1L25.5 1L25.5 2.75L27.25 2.75L27.25 9.75L16.75 9.75ZM18.5 8L23.75 8L23.75 6.25L18.5 6.25L18.5 8ZM34.25 2.75L36 2.75L36 4.5L34.25 4.5L34.25 9.75L30.75 9.75L30.75 1L34.25 1L34.25 2.75ZM41.25 1L41.25 2.75L36 2.75L36 1L41.25 1ZM44.75 9.75L44.75 8L43 8L43 2.75L44.75 2.75L44.75 1L53.5 1L53.5 2.75L55.25 2.75L55.25 6.25L46.5 6.25L46.5 8L53.5 8L53.5 9.75L44.75 9.75ZM46.5 4.5L51.75 4.5L51.75 2.75L46.5 2.75L46.5 4.5Z" stroke="#FFFFFF" stroke-opacity="1.000000" stroke-width="1.000000"/>
	</g>
</svg>
